<svg xmlns="http://www.w3.org/2000/svg" viewBox="-92 -92 184 184"><!-- FSA⁴Future · símbolo orbital · IMPLEMENTAÇÃO PROVISÓRIA (QA-003): geometria do F4F de 29/09 (núcleo r23, órbitas r45/r72) recolorida conforme decisão de 06/10. Substituir pelo vetor v0 oficial de assets/logo/ mantendo o nome do arquivo. -->
<circle r="27" fill="#073B4C"/>
<path d="M-2.57,-73.66 L6.48,-74.05 L15.52,-73.03 L24.39,-70.84 L32.95,-67.55 L41.05,-63.21 L48.57,-57.88 L55.39,-51.65 L61.41,-44.62 L66.53,-36.88 L70.67,-28.55 L73.77,-19.77 L75.77,-10.65 L76.64,-1.34 L76.37,8.03 L74.95,17.30 L72.40,26.35 L68.76,35.03 L64.08,43.22 L58.42,50.79 L51.88,57.61 L44.53,63.60 L36.50,68.65 L27.90,72.69 L18.86,75.65 L9.51,77.49 L0.00,78.18 L-9.54,77.70 L-18.96,76.05 L-28.13,73.27 L-36.89,69.38 L-45.13,64.45 L-52.71,58.54 L-59.52,51.74 L-65.46,44.15 L-70.44,35.89 L-74.37,27.07 L-77.20,17.82 L-78.89,8.29 L-79.40,-1.39 L-78.73,-11.06 L-63.87,-8.98 L-64.58,-1.13 L-64.32,6.76 L-63.11,14.57 L-60.94,22.18 L-57.87,29.49 L-53.92,36.37 L-49.16,42.73 L-43.65,48.47 L-37.47,53.51 L-30.71,57.76 L-23.48,61.17 L-15.87,63.67 L-8.01,65.23 L0.00,65.82 L8.03,65.43 L15.97,64.07 L23.70,61.75 L31.10,58.49 L38.06,54.36 L44.48,49.40 L50.26,43.69 L55.30,37.30 L59.55,30.34 L62.92,22.90 L65.36,15.09 L66.84,7.03 L67.33,-1.18 L66.83,-9.39 L65.32,-17.50 L62.84,-25.39 L59.41,-32.93 L55.09,-40.02 L49.92,-46.55 L43.99,-52.43 L37.38,-57.56 L30.18,-61.88 L22.49,-65.31 L14.42,-67.82 L6.07,-69.40 L-2.45,-70.26Z" fill="#073B4C" transform="scale(1.04)"/>
<circle cx="-72" cy="-10" r="17" fill="#F9DC6B" stroke="#073B4C" stroke-width="7"/>
</svg>
